REM DIRINDEX 1\2,1\4,1\3\5,1\3\6,1\3\7
REM DIRNAME folder01,folder02,folder03,folder04,folder05,folder06,folder07
TITLE ""
FILE "CD3Track34.mp3" MP3
  TRACK 01 AUDIO
    TITLE "0:"
    INDEX 01 00:00:00
  TRACK 02 AUDIO
    TITLE "5:cjc082_2955"
    INDEX 01 00:00:27
  TRACK 03 AUDIO
    TITLE "0:"
    INDEX 01 00:01:38
  TRACK 04 AUDIO
    TITLE "6:cjc082_2956"
    INDEX 01 00:02:18
  TRACK 05 AUDIO
    TITLE "0:"
    INDEX 01 00:03:10
  TRACK 06 AUDIO
    TITLE "5:cjc082_2957"
    INDEX 01 00:03:61
  TRACK 07 AUDIO
    TITLE "0:"
    INDEX 01 00:05:30
  TRACK 08 AUDIO
    TITLE "6:cjc082_2958"
    INDEX 01 00:06:06
  TRACK 09 AUDIO
    TITLE "0:"
    INDEX 01 00:08:11
  TRACK 10 AUDIO
    TITLE "5:cjc082_2959"
    INDEX 01 00:08:62
  TRACK 11 AUDIO
    TITLE "0:"
    INDEX 01 00:10:35
  TRACK 12 AUDIO
    TITLE "6:cjc082_2960"
    INDEX 01 00:11:11
  TRACK 13 AUDIO
    TITLE "0:"
    INDEX 01 00:13:16
  TRACK 14 AUDIO
    TITLE "5:cjc082_2961"
    INDEX 01 00:13:63
  TRACK 15 AUDIO
    TITLE "0:"
    INDEX 01 00:15:23
  TRACK 16 AUDIO
    TITLE "6:cjc082_2962"
    INDEX 01 00:15:70
  TRACK 17 AUDIO
    TITLE "0:"
    INDEX 01 00:18:07
  TRACK 18 AUDIO
    TITLE "5:cjc082_2963"
    INDEX 01 00:18:54
  TRACK 19 AUDIO
    TITLE "0:"
    INDEX 01 00:20:02
  TRACK 20 AUDIO
    TITLE "6:cjc082_2964"
    INDEX 01 00:20:49
  TRACK 21 AUDIO
    TITLE "0:"
    INDEX 01 00:23:04
  TRACK 22 AUDIO
    TITLE "5:cjc082_2965"
    INDEX 01 00:23:53
  TRACK 23 AUDIO
    TITLE "0:"
    INDEX 01 00:25:03
  TRACK 24 AUDIO
    TITLE "6:cjc082_2966"
    INDEX 01 00:25:52
  TRACK 25 AUDIO
    TITLE "0:"
    INDEX 01 00:27:20
  TRACK 26 AUDIO
    TITLE "5:cjc082_2967"
    INDEX 01 00:27:71
  TRACK 27 AUDIO
    TITLE "0:"
    INDEX 01 00:29:07
  TRACK 28 AUDIO
    TITLE "6:cjc082_2968"
    INDEX 01 00:29:56
  TRACK 29 AUDIO
    TITLE "0:"
    INDEX 01 00:30:67
  TRACK 30 AUDIO
    TITLE "5:cjc082_2969"
    INDEX 01 00:31:43
  TRACK 31 AUDIO
    TITLE "0:"
    INDEX 01 00:32:60
  TRACK 32 AUDIO
    TITLE "6:cjc082_2970"
    INDEX 01 00:33:30
  TRACK 33 AUDIO
    TITLE "0:"
    INDEX 01 00:35:23
  TRACK 34 AUDIO
    TITLE "5:cjc082_2971"
    INDEX 01 00:35:68
  TRACK 35 AUDIO
    TITLE "0:"
    INDEX 01 00:37:10
  TRACK 36 AUDIO
    TITLE "6:cjc082_2972"
    INDEX 01 00:37:59
  TRACK 37 AUDIO
    TITLE "0:"
    INDEX 01 00:38:71
  TRACK 38 AUDIO
    TITLE "5:cjc082_2973"
    INDEX 01 00:39:45
  TRACK 39 AUDIO
    TITLE "0:"
    INDEX 01 00:41:32
  TRACK 40 AUDIO
    TITLE "6:cjc082_2974"
    INDEX 01 00:42:12
  TRACK 41 AUDIO
    TITLE "0:"
    INDEX 01 00:44:26
  TRACK 42 AUDIO
    TITLE "5:cjc082_2975"
    INDEX 01 00:45:00
  TRACK 43 AUDIO
    TITLE "0:"
    INDEX 01 00:46:49
  TRACK 44 AUDIO
    TITLE "6:cjc082_2976"
    INDEX 01 00:47:23
  TRACK 45 AUDIO
    TITLE "0:"
    INDEX 01 00:49:18
  TRACK 46 AUDIO
    TITLE "5:cjc082_2977"
    INDEX 01 00:49:65
  TRACK 47 AUDIO
    TITLE "0:"
    INDEX 01 00:51:01
  TRACK 48 AUDIO
    TITLE "6:cjc082_2978"
    INDEX 01 00:51:52
  TRACK 49 AUDIO
    TITLE "0:"
    INDEX 01 00:53:00
  TRACK 50 AUDIO
    TITLE "5:cjc082_2979"
    INDEX 01 00:53:49
  TRACK 51 AUDIO
    TITLE "0:"
    INDEX 01 00:54:64
  TRACK 52 AUDIO
    TITLE "6:cjc082_2980"
    INDEX 01 00:55:44
  TRACK 53 AUDIO
    TITLE "0:"
    INDEX 01 00:58:03
  TRACK 54 AUDIO
    TITLE "5:cjc082_2981"
    INDEX 01 00:58:52
  TRACK 55 AUDIO
    TITLE "0:"
    INDEX 01 00:59:71
  TRACK 56 AUDIO
    TITLE "6:cjc082_2982"
    INDEX 01 01:00:43
  TRACK 57 AUDIO
    TITLE "0:"
    INDEX 01 01:02:71
  TRACK 58 AUDIO
    TITLE "5:cjc082_2983"
    INDEX 01 01:03:45
  TRACK 59 AUDIO
    TITLE "0:"
    INDEX 01 01:05:21
  TRACK 60 AUDIO
    TITLE "6:cjc082_2984"
    INDEX 01 01:05:73
  TRACK 61 AUDIO
    TITLE "0:"
    INDEX 01 01:08:42
  TRACK 62 AUDIO
    TITLE "7:cjc082_2985"
    INDEX 01 01:10:10
  TRACK 63 AUDIO
    TITLE "0:"
    INDEX 01 01:21:55
